<mxfile host="app.diagrams.net" modified="2024-01-13T12:06:15.948Z" agent="Mozilla/5.0 (Windows NT 10.0; Win64; x64) AppleWebKit/537.36 (KHTML, like Gecko) Chrome/120.0.0.0 Safari/537.36" etag="Ikm5_ZK6HYST3LB2bZw-" version="22.1.18" type="github">
  <diagram name="PÃ¡gina-1" id="SAO7vzHuXLInPqCyg1B3">
    <mxGraphModel dx="1050" dy="653" grid="1" gridSize="10" guides="1" tooltips="1" connect="1" arrows="1" fold="1" page="1" pageScale="1" pageWidth="827" pageHeight="1169" math="0" shadow="0">
      <root>
        <mxCell id="0" />
        <mxCell id="1" parent="0" />
        <mxCell id="CkkYBKYIeVMN-7biO_7q-1" value="" style="shape=image;verticalLabelPosition=bottom;labelBackgroundColor=default;verticalAlign=top;aspect=fixed;imageAspect=0;image=data:image/jpeg,/9j/4AAQSkZJRgABAQAAAQABAAD/2wCEAAoGBxQTExYTFBQXFxYWGB8cFhgZGBwgIhkfIiEZICIfHBkfISoiGRwpIRkgIzQkJysuMTExISE2OzYwOiowMS4BCwsLDw4PHRERHTInIigwOTIyMzIwMDMyODIxMDIwNTAwMDAwMDAyMDAyMDAzMDAwMDAwMDAwMDAwMDAwMDAwMP/AABEIALcBFAMBIgACEQEDEQH/xAAcAAABBQEBAQAAAAAAAAAAAAAFAAMEBgcBAgj/xAA+EAACAQIEBAQCCAUEAgIDAAABAhEAAwQSITEFQVFhBhMicYGRBxQjMkKhscFSYtHh8HKCovEVMxbSQ2OS/8QAGQEAAwEBAQAAAAAAAAAAAAAAAAIDAQQF/8QALBEAAgICAgEDAgYCAwAAAAAAAAECEQMhEjFBEyJRBGEycYGRocEUsSNC0f/aAAwDAQACEQMRAD8Ax0xHerPjuNWMXgFt3VC4zDlVs3FQ/b2oC5LjTGZIkE8gANSZrJURI+VelOtZYEjDHOuX8S6r+4qx+DOPPhbqXbbQQfUs6MOasOYP5b1WWtj7waD01k07buA6/i2I696SUb6Bqzefpd8PYO7gbuMuWwt1EUpdQAMSSqqr/wAaywGu3KKwOxZ1M/CK1vH+L8I3AFw128r3/LS2bWYFwVcQx9ggaf3NZnwKznuhYkFq2T8mFk8N+FbD2810sWb7sGAnfufeq9x1Rav3rB1to/pjcbajlz221q5Pw1Lk4Rm8prg01/hg/HUDTpNULG4V7d97Vz7wJUnedI061HE3Jts2LOW2e3BBEHUMDpO8TyPY1Z/BVzDYgYnDYoovnW2uWrjEL5d1QYyk7yDEc9qp+HvMhkc9wRIPYjnU3C3LYuI6ypJhl3idJRtxHeqtLseKTejtnILIZxoHAMdw/wDSpWKwF3D4lbYAU3MpQZgYzAQZBiPVM1ExSwr2+efQaakMf2NGuDcKvOGwlzCtdxF5B9Vm6FezkJJIBMeXE+kxtp1rasySG/F3DDZXDpnzM1vO8K+VWJkZXZmDgqwPphRPUmm7WMe1hWtK1speZGuiCH9BOVROjJmbNproDsKLf+C4hiL4w9txiHw9rKArgJbVTGVGbKp1nXcwZ2qtYu3cC3Q2UeVcCXAGWVYlxAAPrHoMlZGo60qt9CIu/gXFW7yPZuAFHUq46qdN95qhYqz5V57Z18u4ynvlYjX3irH4C4deF7NmVNNm1zT/AKZivXibwv5d9i131XnZyuQmJJJKkH1DX9KWLSk0dWSLlBOthvwbibeLsXMLd2KkDbQ/hYfzKdZqi8Mszc+0BCpLP3CyTHygfCrXw/hC4cG8lxxAUXFZcpCswUsojYZp3NV65ZFpHths8uVLDYop0PbMYI9qTGuLlXRDg4vZcPos8bHDXTae1nXEXlzspgoWIGfKQcyjnqIHwrX/ABTwlcRYdMssBKcjI5A99qwPwzxjyrqBQIJiIH59a2/whxi9fuYkXMptWzb8lgIJDKSwbWCRp86eE1y419xSs/Q8Ltq/jcPdBBXy2WQQT/7AZnYxl0rSZqP9VXzPNCgPlKkxqRodT8Kfirgdr1TbuFEkgAbk1BvcZQfdVm7xA/PX8qACNKg6ceE62mHcEH+lE7F5XGZTI/zccjQFD1ciu0qAFSpUqAFXmumuUAKvJr1SNADVKnKVAHx9YIVgWWYOo6ipuM4Yyt9mC6sMyZQSSp20/L4Uxh7ikZW6RPTbX20+FT8HiGtj1W1uoEb0MTA29QKkEHQHQ6+xqcm09GA8plbJclI3lZI0/hqPYBmny0glj6jqNN+3blTaETqNOYGn5wf0pkaTL9hXt+ZbmV0uLM+zDtyPTSu8FxjW7ildSGzCmMDijbfMNuYOoI5g9QRU/Giyr27loAA6xM5exHUfmINLJ1oZ7VkrjvFWu3RiFaCGgqN1bcH4/tQlg1xwxaCdczHbU69+tWPjfE8LetW7a2vtRGa7tHb+ee+1EOHeHLd7DXXtjM1pkdT0DHKwyjQiSpn3qMZ1HaoneinjAsLioRqzBdOsgH3pX8Iy37logoyOwytoVIJ0I68q0ThvhRcdhTdw8jG2X9VpmAVwpAlZAysNJkxO8SKk3vCNrE4d+KuxtXb1xjkuOqp6jkDagZZPqHqjLrz0om+Lf2N2igYxM0uPxoG9jAB+Mg1G4PxV7WJtYkuxa06vMmSFIJE9CJEdCaKYXLbxKgEXFzW3ggrvlZkIbUQSV+E86D3cA63XtRBtsyENuCpIIPcRHKmi6Q8neze/DmIwQ4hfexjA2cMWt5YWfvELc0VgvqMDXv6TWEcWvi/iMReUSHu3Li6cizPPbTlXRduW9RIQkxB26j9q5cdVUhBAIgydpiY+GnxNZF1oVEjhXFmtkMDr70ZXxdcuuGuQXQRbMfdBiQPfKNe1U9VJPp6gfPqasPBvDDXbvlG+ivplgFgSQDBOkHWNAaWfBbZZZmkkw/4v46cRhbVndzdn0yPSFIK76jMVPuAeVP8AgzwnauA+bdts2sI52ncTyPw+VVLFLcwzP5gy3bZNtRMw2oJHWBrP+mlwHjL2nBDx1pafH2leUJStmm4H6OMOlxLgFx/Up8ovAjMMwkDNIE8+lXrwPg3tWHDgAm68ewhdfiDVL8MeLFv3LcEwh6c+/wDCPetPsKAJGzHN89f70+J3dkc0FFqh2K40DU0zjsWlq291zCW1LMegAk1gfjf6R8XiWZFZrNk/dtKYJH/7GGrHqNu3OrEjTsZxG7jLh8pillToeb9xP3Qeu/SNyzjruGw4z37iKBzdtT89SfasADOToxnqCR+lGOGeHvPPqZyd9/3NZKaitlIQctIvuN+lrCoctqxduAH70hAfadY+FT/Df0rYbzPtFuWw2hmGHaY1kdY20qj4XwELi5s7KOpy/pQLi3CWwtwIWDq05WGkxvpyNLHJGTpGzxyirZ9O8K4vYxC5rN1Lg/lO3uNx8anV84fR9xdrGNw7hiFNxUfurHKZ67z8K+j6cmztKlSoMOGuV00ooA5Siu0poA5SrsUqAPkK5ZY6wAR7VPsXAihWHpYEHXaQQY+e3aiTpZuIZhH5EbN2I/egl2yw0PXSoqSlpirZCuqedOhfTJG/51Mw+HBMMwUfP+1TuLcbV8NawS21KWXZku65zn+8Gg5WGgAMTCr0prTdGkXg/Drd25ldioIkV64lwu3bueUl0OCd/wCH4ioL3Sdhr1HOm7yMh10Oh+etIlLld/oGw7xHw42GCXXIe05jMs6HoRy96tfgnjtqxIt3SuvUw3MZlOhiqlwvi4uZbOIb7ImNdgeRbmRPMe9ROI8LuLifKtoUMgKubtvJ5HcGpOEpKpOn8+Da1ZfvC/jQ/W76YZLdtr15vJNwkopuMJzRrBfURtI0ov8ASVicXgRh717ycUXMBrtom3YuKqmEthghLeohyuYZTqBWTHB3cNei4mVt4mJB5gj8o2NfQHC+KYfinDjbxDKpe2FuC5AIbYOJMTmhhB0OlXjxXT7N8GGeIfENzF3/ADnS2j5FQi0pVTlmDBY66xvypPhmxV+7ctmGe5mCudWLtJg8yC2vavfGeENhcVewzSTadlViILLMq0d1g/GmcHxE2JmGXcCPxEaCdCunNdRPwrZXWuwfRM8XeE72BFrOc6XrYdGAgAndeYzDTnsQewA2LhVwTBy8qu/GPF74vALZe2bdrDkEFrjO124QQi5mEwMxPtHSqteFn6shQziDdII55Ap1I21Yj86z7BVIO+HvFQW6xun0sACDtAERFTeHcDN7FPcwlxMmbNaVyROklZjQAyJiqfg0QBlZczEaE8jRjw7xVsMGugh40QSQSdMxXT7omJ9utc2TFVuH7CpWEwtnFYs/WrepYgrnYZTMH7pGukT2FV3HYf6njnRGzizd9LaajcT3gwe80X4/w51tDiFhgUuXDnG7WXYlgCToy7gNA1jTWquAS2ZiSSZJO5J1JPeq4YurvVVQ8W7s2XwlwwLaa9ZKqLrZjJMCewrTOGPNpNQSFAJG0ga1lHhTilteFw+jKSUPPNmhQPeIPYmr39H+KNyy5/Dm0/f9q3G/cdGZXGx36RUJ4diSPwoHPcIysfyU1804zENccnmx5dOlfSf0lYC9e4dft2Cc+UHKN3UEFl7yoOnPbnWD+G+HBrjNcHpFssvvKj9/zFXbpHPGNuiJhMBppbZz0BC/8jRbgiFcQbalvL2Y5g07zlOmlSsXdswLaJmb9fc9Kd4DxWzaulWQ6DWRA/2/oJrnlJtM7IQjFo8WrmI+sm3luOkzC3Mmm80O8ZKpRHUMAXOjzmXQ6GedXAXrTG07IQrmFYgSra6MBIg8jP60M+kq2ptKEAOVwWI5CCJ+ZFLCXuRuSPtZVvDGEe/iLNm3957igdtRqfYa/CvqKsY+gnw/nvXMW49NoZLZ/nYakdwun++tnrrOA7SpUqAFSpUqAFXma9VwigDlKlNKgD5AuY9zoDA6UrLFmAmCTvXhu1eHEa0tLwBZOK+GXt2/OF1WXnIIjvpMioXFsALN3yyhGQBbhzh1Z/4rbKB6GEEAyRJE1BONulQpdivSdKsXA/EVlLXlX7QIjRgJqF5IR3v8jNgnDYYuxFrLIEwxgn2neo+LxZc+vcAAewpnEEFiyyASY177UwxqqjuzR42J1FWLBcXt5EBUG4kZWO4A5T07VWkJG1Ik66kTWTgpaYML8U4tcxF4O/4RlXoB0o/aNy5ZlbgAQSe0c+8VSwSIM60b8LXZuw2YyCAAdNRz6ip5MdJNeDYxuSQ3Zxhu4hAzBiCBIAAOw2AAqdxdCMTds2kUgsdxoBzg8vxD/qhGFssl0AaAPEx0aD+lWTxs1yyttCir5luQ6z6lPIkk7bd5p32qKJLjv5BHiEAWrVtGlE1Ma5iw0eeY9LAf3ruFtYY2WYSt1Yy/zaiZ16TUS1dRGcEZhAAzdABGhorwzhGGuiPOfzWHoRQAJ7mDlHepydR22ScnJgi0i3MyAHOzDKREDrm7Rrpzo34m4D5OGtYpHlGItBCBKwrGfZiCeoP5MY3gpwV0WrrDM4VsybZOcTsZEbdaPcQuW1uWLN0i7hyquinQgNKnMVP3tCJHI8qSeWmmto1ukVK3xC6bX1YaLcKsR1I1HsNAflTz8BxATzPLlBuwI0+Ez+VScXgrNnHXbVps1pXHlkmdCA0E8yJyz2q84fDC7Za1MZ1Kz0nSfhVHNRSrzsvjgnGwP4F4Pcx1xMPdvpbtprlCjM0cgesde+9blwvh1uxbW1bWEUaf1PU1kn0b4VreK+r3gLdwEXLLaHMUmVDjRrbLmGnMCNiK2K5cA3MToO/sOdPidpsjKTl2OVmPjnwQ1u4+JsZfJZXN23sbZIJzJ1UtBI3BJjQ6aKMYhJEiFOVjIgNp6TrM6jlVV8XcezoyWzNtkcZssqzDcToRADa6iYBp5tVsINp6MaZCHMHKY1P7CpXDeHqzCbiE7+q0TqO+bWmcYwzGal8ExaqcrfdPtofeufk0jtSV7C6YYqotsy5D6sqg6kEHntrVgwHgK7i1Tzj5VgkMYILuNwFH4R3Ovao3hHBriMRbSJtiS3sNY+JgfGtaURpTYocnyZPNk4riiJwrhtrDWls2UCW0GgH6k7knmTU2lSrpOQVKlXJoA7SrzSoA7NcNcprEvCkyAYME7T37UAN3cfbBgsJpVW7/AA++WOYA6+ls5JYHWT0gkrHRRSqfKXwbSPmt1g6yOoqbwewXdgth8QAjSi55WQQHlASArFW10MQd69YtZJGkTp/3TnAb74e/bvW7r2yjglkIzBZGaNwZE6EEHmK1SQtgedK9gyPaiXiO2v1i69olrT3Ha2zAKWUmZKgKAddgAByobhxLAEwCYnpTXqzT0jcjsaIo1prcFdevSuWeCswLZ7Yj+afhpM1L4H4fN+5lNwKJgnvUZzjVt9GNkXhvCDdBIuKpHX9aZxiCSDoQYkagx+tEfEXBrmDfLmzIfxDlM6H5b0MuYtigQjQa96IScvcnaAjRFEuGYsqyuPvLus/fHSetR7IQKWZouAiEKyGHOSdBG9M3tDKnoR117dqp3oaLphW5iFuXWuICEdpMz6W0kd53qx/SXbZzg2iQMOC25Gsb9OdVuxfV0AhluTOZWlX/ANSnSRyYa6waM8Z4mxuK9wE2vKVF6JAgg9PXJ+I6VKVqqKN+1gHEhcqLALHSdum596etu9rykFlRcLBkfm4JIE8ssj8pps4M3RmtyWBMgxEQIjnMzoe1eVEZQxIcmf8ASO/8xjboO9NS40x5Y3wUmqvr4Dz3GxOMtDEqFhQMoOsSdG6Ht0iiXjTG2cNfW15CEW8pVigl1IEBTGoBJmeY613guDwtxWN+/ce4xBVywBUxG+pOw0mIHag3iDGJjWdw/lixbJRX1zgZZAIJgkgke8VyxSlNLwkQlGqsFNiUuYlrltBbRnJVB+Eft1rRvD1yQoOu1ZZhHhwe9aR4bviFPSq51SR14Kpo0HD8LsOltlUi5h3FxNdSRrE7kMBlI220kA0bvJmfPnYQICgsB30DAHTt0PKq1wbGfaqOsg/In9QKOX70erqQPz/vXN6zitE8mNRlQxw3hJsuzlgRoAAB6lAIi5I9UaEcwZ1gxVI8S8QTG3rotC5auYQOCrgReAPqKwZAUWzGmuYd6v8AibWcgc1Gbcjky8vf9Kr/ABHCotwX1UfcNphGmXeCOfP86JZ2tsyEaZmbcNN4yDEb0/wfhNtoMGZ1k8qsWOwC2Gd0/wDW+q846rPOJ0PQipHhjw81xC7BktsZkfebsgOw/mPwBrXktXejt9qXJkS011T5eHc23y63M2VbSTq9xpgLpsd+VazgLgFtZfOI0eZzd551W14Eq4d7NtFtef6Hj1NlMj1O05mg68hOnWpf/wAcw1oDy7YAChQBtCjQxsT3p4ZGtx3/AAceSSmywWboYSKcmh2CKoqoggASYHX+pqar11wyWt9kWhvEXWXUKGEaCYJPQTpQfAccvO+V7ItAMVbO4kQJgRoxjXlv2Ne/EHHfq5WVMNt6ZnrrOmg6e/Kq/wCKePYfDjOqMXdfNViCFcE8zGaQNgIjTlRKavsyi8eaInXTlz/OvSmf71k1vxzecAZwJkbk89zMzvz6UsB4pxuii6sgSQYOhygGYkxo2x3pP8hXVGGqviUBCl1DHQAsJPsOdQOK+IsNY/8AbcUHpVW4RhRdum8168xRM17zI1jVQijQoROh2MHQms38Q4O4964ScwUAhgpkSJXTQoDI02EmJit5tqwNifxfhOTmP9JpVk1vBACLjhW/lt5gwOoaTcESDsABSpfVn9gKal62VkmCOUEz8qhXsYCIRSO5P6Dl86bu2IX96KeG+Ai+Zd8qg8tz89hTtwgnKQtIDliRuZ/b+lN1p7fRrYe39m7q8aNMie4PL2iqFxLg9yzeay4AdfkRyI7GsxfUY8mojEXD4tlEA1O4TdbOdTMTM7RGtDXssDBGtGuDYUk5Y+/GU/16f2psnFRbMYduDzMOwua5yBJMzl137fvQKzwxXu5WYgRyjWrFjLICBRsBH9/eaB4HDm7cAVogke9c+JSSdaHw45ZJcY9jF3hjvde3bbMEH3jAgbRQ/EYNg0RJ7Ue41wdsMoIYgOTO8H4zrQzyGI0zGefP8uVdMWzpyYXD2tPl9uhuzYteWv2hN3NqgBhR3Y6T7VZbOJt2bH2aFrrvDa5QEymQW6c+5ig2KuFwhY+pBBHb+Ie8QaKcTS3bs22Rw9xmylJGnpOsDo2XeklvTJRi4poieFsebLnRIAls8Rp1n3ofjsWHvtcXXM0iY+HYA9OVN49vKzWvxk/aH5EL89T8O9PYXCm+bVuyn2pnMZ0YaEEzosayfampdstLLLJFQl0i0YjD2cQLANplxLZVYN6R5cyDDCBmnLJ5e1RfEz27cLaci0ttUfD3H9QAaTkJB0O+ZZO/LSoRxF7EXFLesWEysUg+kc9N16ETzonj1sYi3aItEOHgtJhweumm2/v0qGotK2Zkx4+FxltfyVPFhSxe2jLbJ0DGY7BuY99etHeAcZyQDyrrYJ7pIYLlU5RaF1VcgQZQPvpOsb13EeGXZc+HYXrZ+6ZCXF/luW2IkjaRI78qeUoyVSOfHOnouXgTjXn3rjfgsLLN/O5yooHP8XyFWpcSfKw4OpuH9WAB/wCU/Csv4VxQYaxbwyQbj3C97KQfUrL5akjQkQZjtWiYDEh79lBqtkKCe6gk/wCdq8/6iLi/aW58tstOcecO6kfrUbD4dSWtNsf1FeMPd+2tzzX9QT+9erhy4he5/Ws5Wra8ig2zwEM7Ye6CyZg6noAdp+MezEcqtAtqOwUaCNgKh3LRzNrv/nwrziLxVI6nrOlPFxjprRjbYrRb1P0+78TUxrmdBHOoJvqEykgFhOpGnSmrF5iirqBJ1+PKtU4R0FWE7B6f50/Kpduek+9MWRoKkj51044+RWxniOCW9bNtpAPMGCDyI/odDWNeKOMXGJtvdzBGKgnVWgtqCOfLQbb1tYBNfPXFrfl3mt3ll1dluD2/hn2Me9NNXQpK4Zi5SG0C8oME8pA03qdavFtFyE9cpYroN40InpyFAmt6cwNDLk8xoTymP81p9OJMYynKFMkActtJOs+1QeNPaBh/A4h0YupYAiNVMFeamRqDryruP41be2iz5ZV8w8tVWcuwygAEDMw1mMxO9CH4oSQQT7Exr06c/wDIrzfw5MO3p3IC9d9YEzzMTE1sOUe2KcxGOW0xSXBG4kaHvpvSofcdZ0X8z/8AWlTUBWsfbIbIDmnYDX8qmcIu3rJ+60VDwmNNt8w+9G9Wvgd8FgzwdBpp/hq+aXGG1ZRRjxuTD/BfF9u2n2pj33+VQuP4O1xK6t1GNsqpWYEt0n/OdEOJcXwgt5bihj/DANV3h7F7jCwSludBP6dq87FF3yjaf8Bhwyyy4xA/GvDV2y41DqdA4ER/qHL86tPgzhNmPUfVzJ/YToKkjhS3fS9wz3NCfIezdFtJaT6Y1mrZJTlCr/Y6c/0OTDHm2mvsFvEvDlsOFDgq4kSQPfXtpVF4Zfa24gwVJ1/Krtxq4bJQ4lA6suwYSD0kg1Q8YVzSsDWSJ5du9X+mblBWNhh6UVlT78FuuW2x9tbHmCVAykzpE7Ab7kfGmMf4dxGFUKSro4lXX85G60A4dxB7ZBQkVfvDXFEhfrPqG5HT4660snkjKvBbDlyfUZ7UdV4+P/Sg2cC7K1wAsQToP4YMkdT2qZw6y6MLnlEFAdW2LRIOpE6kad+VWDivF0s3s1pEggmCNOYBj8/epFprt+yHtW4KeonQyNjCkflVZTbjobP9E424ba7KVgAL1z7UEsdy2kfDTX8u1WDFrYw142VyjzkQXLik+lCoBVY2LRLNvqaa8VWFRLfryKNbVk7zAzMW/Ahgafpyq1zFtnzEkkczTJOavo4ucFDjJVL5+xbbGCfBY2bEtbBGXNBOUqrENG0EkCRrFCMdjnd3YjQseesTsoO40jQcqMYLH3Dds37xNxXtsrowcHKs+oGIeDEGf1qDxvDWrVwqlxXV4cZWkrmJlfef+96imue+6OfLx5e3r5Gnvsx8wKwAgIrZiAYA0+W2nLfavBxrrDm4xM6wAI15GZPWYGvWvXDryqrB0ttO2eZ/IgR3B096jNhpzESANuuscuYH9Kale0SCrXLuVMQ4zZWVluZ1IPMBl+8pFW3wfi4VmbdUb5kAfq5qmcJtAh0DmNyuwYAjWCd9OU1aeCiLSfzlf+Tz/SufL1RXGzQGvhcRaH+kf8RUjjnpuKw5a/r3oRj7sYhP9Q/QUY8Qp6Vao83xdor5J+LAKi4Dodx/Shdy9Op0A9v60/w7FZsOAdeXtFBcZdIJ105Ctlkg6bRiTPGOBYNrsNo3rnCsa9zKoYjIORjTud+Xx9pqMuJImY+QqDaa4HdbErmgsw356LP3NySd9RERrNKMpe0ok3ov+DRgBLE/D+s0SsE8v8+IrP7PDCdbmp6sS5PuWJonasKuwg9RofgRqK7MacTXi+5cWvgAltABJmvn/wAS43zb1y65ALuWXbWSTHwneti4Rx22bgw924vmEfZ5iAbgOhH8zD5kHnrWH8QKm4SfuK75OuXM2WD35/lVW2znkuLoiXWzMP4SR0n4cgeVO4nGgLlAI5QSSZmdZ3016e9ejYt675l3KyQdDov+DnvTYS3lkBXJkerTTTlJ7QdCI70aYljdvib2h6rYEzrrqeh10/z4PtfuvDu9shNR6xmjTQqCCYHvEH2puyqsjqJkaWxGYBgdtj2E96833NnW7YDMwmLgYAdMqqRO0zrvWtK+tmEq1xOJBjcx93b5UqEW7xj7ppUemjTuNa0barlJC7HQb9SN6h2eIsugmKa841O4XxG2rfaWww6j+nOqyjS6s2UmyDdusxnU1MwXEmtmQYqyXODDELmslMvvEfCq5jOGhbvlBw0RmI2BPKpxyRl7R8WaWN3EJ4bjzb5oo1wHilt2BLQY32qSOB2XwRSBIGYHmCKzv6yVPpqKUcyajqjozfXZMsOD6Njx7WhYe9CuyqWAYiDAmJO01QVxy4twBYtW5PIa/E/2oXg+KXH9Dt6OY6+/amMPiyjkjSSdf26U2DA8dpifTZEppT6LD4l8PmzatugC6jMANwdiRz336U5g+B3LlsPav22YCWQmI9mmNuunepfh+0uOLWbt1oy6QdZ0iJ5CNqG+J+FvZY2sih0gC4kKXU6CQDJnbXbWh5E5cTo+pzQx5f8Aifjda2BeJi6lwLcMsehBHSJHMbVZOC8fOcWiSlogK4mMw0MHtzoZxNLttLSXbC21EFGEHlB/3HQmp/AOD2bxFtvTcWGzGSGkA5Spjb+tNklHhf8Aoh/kZOLp99/J6+kDhyD7dGBLsAukjKABudzPL+uo3AcIF2He25zIctsaG4w0GRoiDIJjtRv6Rb91Dh7F5g6KCwATKOS6anSD2r1gLDLkt2Lpe4FF20pfRdwynv0+GtLGcliTF9KWROSpV3sdW+6LasXUbDXbACr6QyNnAMt+GNOvXnsz9IeEtALeXIzAAOIgEAxK9QSTOvepeFxq3W865fzZwGuW3Qm3mQHKk7rpqInUk67VPsrZxuBZxCO9pvR0ZdxO5EifY1BXGaf7/qSnBxbjJbRUfD95Gz3CwVkliP4kA5g6aEnUe1EL9tf/AGyHBIOmUCP9ok6T7RVXwl57MOMykEgadYDTI2gDepN62czMItrmmBMKTrAmY5xB+HOumcLlyTok0O4bFIbpCgEBScw67adRB/znesFAfD2/5k/L/qqjg+Fu19UVDmcCeZJJ1mB6Qd+mo1rSsLwS3bi9fZlKaiCIB70mS/CL44NrR74pdH1hT/OP83onxvxFhsvlB8z/AMuoHudvlNVfjXiIA+TaVSWnWPjmY1C4ZhlYaaxuTuaX01Wy6x7LLw3iqocjE66xG1LiIJcFdQarmMu5SXbQzvRrhPEAyanTr/akligynpI9Lgix1IAmiNiwqiBTJ69aD4zxbZtYj6u2bMIzEDQSJ/SPnVMeNR/CgUPgsdQcfjgo1NLE3jkzKCywDmGogiRqNBvVX4njCQzNookmtcvCGSQK4rxLz8VbX8OHm457LDAfEgD4ihl9vNTOWAJeFk6ZYzExrGun7VI8PYuxcN1WsOVcEXbqFi6gnMDGqbqNI5VIteHy9kPmt20X8T3IzQ3QSQwG+g15c6ZqmcmSMmwBcUWzkzBIAYvGYEkGBEf9c6bS19YaLaEOOYzEnX+Ud94irPwrgeAT1Yi9dvtvktjKs99Z+ZG+1Pcfe4iD6mpFlhIW3ZhgZGj5ZmRqG506kvBPhXbK8OHm3/77vltBzBQxLak6lSAeWxotheLYdldsTdu3LbQUtg5QSBGsNI9/TO9V25hb7Am5aYGdWcOJHQgj86ii7APpXWY3BGvLlWuHJ7Dkl0XZeP2gSLWCw6rO1yC0wNScp5RzpVQDfPUUq30vuHJjNcmvYikYqwgQ4RxE2zEmDuKkvwsZs9t4H3iW5c4PWhCkVJtYiNjSSjfXZlE/Gceura8oEQ4gsOnOPnQO0JYVLxuHYwwErHy61DXSshBRXtQJDqKQuYTA0M9eY704ozxIP+fuabzZjpz1I7/3/pXk4g6gCOXPTr8xp7U9DJ0GsFjlw5V7T5kYSuvqQ81YdR12Nehxl7+J891JCwNBOUCd/mT8aBxoNNhy6dfeiduyUCIAw8wSDIytvI0Ex11/WoyxRtvy9BxvosnjLxLaxGHCiAysogSCN5MRtGmvWo2DHmYY4kMUu2VIJ3DgHRWGkGNQex30qtYpQSJJLE8hpr0Jif8AurLhEvWuH3iQq2zbVhpJzMRHqO2hmORpFijCKivkrBaa8ULjobGDC/bK7Qy+WAcy/dliZiNhrB331hzwzwhbeLdLlwTZ3AJAbTaN51oH4RxOTEW2Y5ZOhkj4+1FsVwXE/W2u+ZbDvcOXKxadgNN4iN6SapPEnWtDLjKKjBbsIeKOIWhb8jD58OSxZ7ZUj06QZOusb9KheD+KtaF/DjcoXtc/UokiPxZl26kDrUrjPCsTiLlu9c8tSqi3cZjkVQJkGdz6jtNRrPDMJhzn+tu9wfd8hTAOu76/tRCMeHHz/ZNxk5W/5GMBg/MuANeFl1AcG7swiRqTIO/U/Gp3GrmHxN60pBtkoBdK5YYgsJGm4G1Dr+PsKqzYa87ES7OFmABEqA0baE/pRZEt4gKThszLmzLavQUHpiNYK6kkidtt4rdJaOnHxcVBK/LHjxJsHd8uzN4BVyFdobRQxmA3pjfWPcCFxHxXicQxsNFt5ghjovLU60FxOOazdcLbNuCFZPMLgxqJkerrP9aIPi7eJvK9rDkXYAyqPSxEyxSN5O/ahxq3RSTi4XF0/j7HMM72ZDkNcJ1YajKDsJA33+VWzguMAhhEe/8Amnf4bjWpXLTKSLgKOp9QcRHuDyimrPFRJVdLexj8X9F/WsasWLS0y2obeMvBHuqlsHpOYjrqIX9fbc7i8J5MoI9PQ6HuOorNsbhXzNiLHrtj1vDAG3G+YEjSek1I/wDmOIFxVcj0HWCCPiQSGqShNvTtf6KQnGTq9l74fdYzPLYVSvHmDm6MUsEQvmIT00BjmIgEdu9WEeKbMG4sLoMwManXYcxpVL8S4u9dY3FRltvMDKYIjXKTuNzPLtFUxxdi5/bafZaPDHiW+TlAUBlhs7ALqOc9uVOeJOHNaRBfm4tycosssNGsFmIM84is9wruoXK25Ok7Hv0+NXThS41lWUN1UBgIwZlmNcp1cabCevKoyxOErXRxLI4po9YHi+HVlCpcS2NkCBS3xJOboTXOMX7DtmsW2JXQWnuSN5LQFz/CY11ojjuE2sTaUONCMykSCpI5SduUH9qze6bti41ts1t1MESRt+oPI08Ic9phK/0LecSLQBa1lkTJQgH2zcqfHHJGjf0qjtea4QCSxOgJPXvUnhWRHBcPpyAkH3Gh/Wsl9Je+Tsi4b7LS15W3Cn3E15u4Sw0lkUnnGn5rFRVbDttcyMTABzKP+Q3250/c4ZdUSrBv85dahLFkj/2ZnCS2ge/AUJJW4AJ0DKSR8edKnSzjSKVb6uX5F5yKrSpE1ya9QqImkGpVwUAT8PeLLkBhgZX9xUB5mCII3rgap2HzX4tnVvwnmex60vQDVq0CwCxrzPKrzwnwPhrqKz3WDHfVQI+WlVy5wB0QXArbwylf+QPTkZruGxznKDIQnmd4/auXLKUl7JBbQXH0f3Ll255N1WtAyjOSC0id4j+u9C8O3kO1i6DlVjnQ6lCNJHWRqQNx7VauD8aIGW3Jbcx0/bnVRxuJ8+9evFoLuscpGgjfpv7GlwznNtT6oeEjxiz9qLYIK5wQRqCNwQeYg1beK2B/411OzZIA3MZDA/8A5NU5beW4rsPS7ErB+7BB1G2oNWrHXHv2UtKrBBESROkiAPbn+XKqyS1RbDByuMVbZXbfDkJUnMXP4V6AABRHTr7U6cW+Gu2bqFQSpIWcxWGP3id2P6RXjF3WwmKHpbSPSTqeusDTv2+TvG+IJeuBypyAwTpCkheZA0mZJrfdzWtC8njlaVNELiXF7t03JOZbjBuvqAA06GBUG0QSNee40PY/P5VPvJ5aMr52MAiBAB0HMa6n8J6HnFRLWRCSfLM9WYkEgbAQDE7wRM1RVXRJycm2x7GiVRQZIU6k+53qT4cuYq0wuWkYaaEiBlI310y969WBbtEXFZLigAMCMpDNM5QvYbzO/WiONs21tAWhcvNlMJAZUmQWgCYyk6bA0ltKl/JfDHIvdHwCMRw6+jNcvWyqkkTIIJE6CDrEH8u1XDwvwjCvhzcUlLttSwYOZMawVJhvhBqs43ji3bSIyDMi5VYdOnSNahWcT5aFlukZhomWSdxvOg7mhqUlsvGWOEmp7TXZb+G+IMPeuO2KthmUQjDeRMDXTc0B4mnn3WazaCKf4RC+/TXeBU3DcWwd3CXFuWUt3rYm06CCx6NH3ge/WpXA/Eds22S5DAjQGI+RqMLjen+pn08FkTV/kVnE2xaDDOzM6lTkJAA9hqfj8qhYq7mfkDt6QANI6RJ6mp1xHt3GuKp8vkRyHw1+dGMY9jEYfUjzFGhroujIYOV09rwc8K27GRmJBuLqMwHxjvQbxS7tfLtJBUZOwAjblqCaj/VrlsyCCBzBj8t6LYPhN+4v1goTbKlVMHWDGmnY1jai+VmZckXFRSpg68GQIWUzlB1A9QOsgjf31qzeHOIX7ktZtO62lm5kj09DJ0meW510oSMGLRFm7ot1Ve038BMiPjOvsK6i4nClmttcVRAcgEAZoIDA6DNAid4qM6np/ocT72XrA4xbltWEmRuRGvMEcmr0YJBgZh90kCR89vhQ/gPGxiEEn7RR610E7iV6gx8KIXbXMGek68q5ncXTLw60D8VwGw7ZvLQNvmVVmesH0kz1FCPEHBQn21sEj/8AIuhj+ZY1jqP71Zj/AJpXh7RYEExIIkaVSOVpjSjaoz67hlcbET70V8OFlDWXdvLMFfVGUjp2I/QVcOJY83rHkYgDOF9DREsNwD+YqiPmAkHSux1OJz24ss31IfwOe8HWlVR/8veGguEDpNdqXoDco/BXyK5FPXkymm81dNiHk1yvU0iK0DgqThLuVgehmo4WuMOdYBseA41YfD+ZoNNZ5ac6r/B+FWbjFsgIeYB2AJmADVV4ZcNy01sMQRqB17VK4Dx44dofVRXn5PppRcnB9+AaotmNwWEwhCuMnmA7ufUIIIE8tdvaq5dwGFuX0SwtwWyAczNIMyIWAW121jWaJeMuIjEWbTR90kiRuCvLtr+lCOF31Yi0qKouIFaOkqRBGoaVmd9aphTcLd2dWJeo1GkSAECvh3cs1ojllDqoZlUNrBkxB6RRPCccFpcxQgLoXKnLptDftQ/jHDhhL9lzJt3NdSZnudSRXvjN5fq9+xOxVkgAc9AI5CNfjTuO0XjKX08m1QJ8TcZ+u4hGAA+6ogb6jb/N6i4m6Q1ySINxpUzqsnXTY/KonCZ81BzVsw/2gn9q7bxB15yQSfnv7zXRVaOPJNzk5PthPhNo3Sto3QoAhdyIOonarNdx+HCph7gV2B9TDkNoB31qlgZrihTBjU8vkPlT64C5czOrSVBJ5aDmKnOHLVnTCTWNwitvsJWODYRsX5ZuOtn3BM/6o2+E96bON+pYphZdigOhkSR7gftQRUbKXzQedF8G+FbDsLq/a/hfc/2pJRa/E211X9nHyfQ5jnsv5l8CHdpjSB1IEaSdfeg7EbkZpB3J076b1MTh6tbRlY+rTXYHTQ/Oh9wEEg7jQ1XGqVDSTitk+9h7HkZgT5kiRPfkKjWkUDck684+dS/C/BXxd8WVGmhuOdkQfeZjy0271D4nhRbuPbVw4UkB1MhwPxDoDvHLatUadWZHWwg2NHp9BCMoFzq0dhsB058+0bGFbVxQJKESVmDudjUPDXGB+8YGupn8q9cQuMXGeZgEyI0MEactKzjTDm/BMxb2/MJtA+WfugnWCBIkyd5FaR4XS/awSJnR7bDMEj8DEsSO5mfz3rLnuhmYqIUscgPJZ0Hyqz8K8Vi0q2cRba5bVAEa2wDJvproQOhqGaE2komRavYc+lDhoNi3fSPs3gkcgwjT2YL86vPgvA2cVhbd66gJv4ZLd1fwsB2/iBkfLoKzjHKuJsXfJxC3FyF8jEh/T6oKaidNxV5+jvEPhcGFvr5S2recknYas2bod9KldRSa3YzSsyXEo2GxF0WyfsLrW5/0sV17HLV9wuNR0W4hEMJjNHfXXlMbbz3qn+HLoxV3Eu4A81mcgiQM7MxH50W4ZgPKBt5iYbOugOZSI5HWIp8sVdDQQe+sDnMjkf2NesOi3XNpGUOBOVtCfY7T71CGIVBqYWB+E8+/Mfpp1oRxiwTdS7adlcwCQCdJGuVZLDfUdRvUeD8DS5LoNY3CK4hhoDI5QY0gxoeWvtVY4bh3uW3uBYgFgSQyuBIhI9U6dI9t6LcNxoxdnIyNadfTe9RBJ5ROq85H+EngrPlhbYEKBCweQ777R8qZTlFV5ErkyiXbUmYpVd/qk6wuv8oH5Uqr6/2M9JmY3EkRzqIVrtKupdkxRSNKlTAKaQNKlQA7g72S4GHI0cwSLZxCsdVZcy/Pp8KVKp5vwgx7xJjbl77caAGF15AwfzoN9ZKutwafsRSpUuJJRpFMUmpKifxTjdy8EDHMQ3oknQaUzxG87J9o2Ygx8o+dKlTeUWzSbk7JHB8Tat22d0zGIA99KcwOEtPhbrkAOCOXKYMGKVKtfR144ptJ/ANTB+lmB+6J/wANOLibmGZrbRqNY1kHauUqSLbZw45tSdELDwz66KW19udPrYt+Ux1mZB7TSpVSWqJS7HuB4R7lxLWfKrHMDuNAdcvXlTWDsm6x9izHpGpPfelSpW3b/JGrdWOWcbeW1cS0zLaJ9cEDN0DcyO23zNNYvFrct2/TFxcwdv4xMrPcailSpvJvh/l/ZFAp9cJpSpUxM9JZy/GveJcZjlmOU0qVKvxMCOGg6aEbRpHxqy8L8cYhFNq+fPtMIIaM0dM34h1Db9RSpVskn2ah7wjhgty4imRcUNa7pJgmRvB1BijVxw5hWAZEJ+6djuA2mkqDSpVy5fxFofhOvYu2WcM6s5AYSvptggjYQXbQrG2kyagY7hmKLG9bukuN8xAJGo0gALB2GunPTXtKkRSLakEMPxjFsq+fZttpDsSskciYkkjXXenPrA2zAkdARsOc7/5tSpUnFC5HbbGBeD65ojSMu3+TSpUqQjbP/9k=;" vertex="1" parent="1">
          <mxGeometry x="40" y="105" width="324.27" height="215" as="geometry" />
        </mxCell>
        <mxCell id="CkkYBKYIeVMN-7biO_7q-2" value="" style="shape=image;verticalLabelPosition=bottom;labelBackgroundColor=default;verticalAlign=top;aspect=fixed;imageAspect=0;image=data:image/jpeg,/9j/4AAQSkZJRgABAQAAAQABAAD/2wCEAAkGBxQUExYUFBQWFxYYGiAcGRgZGR8cIRseHBsYHBkeGRkeISkhHhsoHhsbIjIiJiosLy8vGSA1OjUuOSkuLywBCgoKDg0OHBAQHDAnISYwMC4wLjAuLjAuLi43MS4uLi4uLjAuLi4uLi4uMC4uMC4uLjAuLi4uLi4uLi4uLi4uLv/AABEIAKgBLAMBIgACEQEDEQH/xAAbAAACAgMBAAAAAAAAAAAAAAAEBQIDAAEGB//EAD4QAAIBAwMCBAQDBgQGAgMAAAECEQADIQQSMUFRBSJhcRMygZEGobEjQlLB0fAHFGLhM0NygpLxFdIkg6L/xAAaAQACAwEBAAAAAAAAAAAAAAABAgADBAUG/8QANBEAAgIBAwIDBgUDBQEAAAAAAAECEQMSITEEQVFhcQUTIpGhwRQygbHwFULRI0NS4fEz/9oADAMBAAIRAxEAPwD1cVIV49a8XIjbdf8A8m/So3vFnbBvMwP7rGfyNalJMzODW57MCO1SmvHbGvuLkMQft+lXt4vdnc11yZHBI4BA/U1KRKZ64GqQevMNJ+K7yKFV5A43CT9zmiLP4uvqeQ4jgxj9DShqSPSN9SUg15drv8TWtHabSlonB69Ac0hs/wCKGsNzc2zZOUVRHpLGTVblFbBWo9y+HWjbPauF0n4+DWwxtQx6B5X7xM/SrE/HDTmyI9Ln9Vo0G/I7Uqa1XMaf8a2SYZXX1MH9DNF2/wAVaY83Nv8A1KR+YEUaA2Pd1bml+n8Ssv8AJcRvZh+lFg0aBqLgPapbPah9xqQuUtMZSRcE9K38IVULtb+JQpjaok/gVn+XqIuVv4lTcnwmjYNRNo1Lf61rd60dwVEgUNZFWB/Wt7qlk0oqmsmrxFb2ihqDoZRNZNX/AAxWjaFTUiaWVTWpqz4Y71Xd2KJZwo7kwPuaNolMyayazcm3cHXb3kR96Du+KadedRZH/wCxf61LQNwytzQVjxKy5hL1pj2Dqf51vUeI2bZh7ttT2LgflNTYlsMJrRpfqfGtPbT4jXrYTvuB+0TNc7rP8RtMv/DW5cPttH3OfyqNpBVs7E1A15nrf8SLz4tWkt+plyf0H5Um1H4w1ZM/HceiqAPoIpXlig6WJNAouLM7Txt/s1B9P8JpnynEdjV6FQPlVexwT9DNU6m6Il5Ikf6Z6Yn+VYVmHxx1yUUt2R/zI5kgc1N7oiZJqWg0StZvOqpKkqQTLDdkFZMmCc9BFFrZYXdlrbuEgFiIBmcTKsMc5Bqz31GyPs6U3UWn9hdb1uev3qy/rtgkn2nrRLaEhgXtkGM7fMJz+8pj1yelQTTW4LPt2bhnkjCklVJEn3qLM34lUujnGVS2Ob1t8M24TJ5kg1pSUG4SOJ9fcdq6m/ZtkAQgziQB07Y6c1QPD7JzsEE98frVfv0VTxuL249BH4f4hcBhCcnI/PArpdPqmOOSemP5VQultWpZxbtARl2g9BxM/lRiXkBhQSGHzwc9cLIkTjn+lOs9dtgLE299vXYpbUyPnUySPK/VeRjtIqIb1b/ypX4VEsIMC7dHMZJBGJHr9qZFrY6DsfOfzgkCmfVNbblcopOi9dRAz06k/wA6n/8ALuIC3COwDHHsAaBvXLYBKquDztZgD2kCJrE1K43KAeuH5+1H8TLmmD9Bva/EWoB/493/AMmj88UdY/F2oXPxSc/vQf1rmbmptEECCY7Hn0/vpUbVxZXdC+X945JxkD7/AJ0PxUvBg0rwOztfjq6OW++36YIq6z+ObwPmKfVP6GuIu6m1GNre7qB9iayyi7CzBQ3RVYfnBzTLqmlugOCfY9Jsfj5I86Se6yPyIP60Xa/Hun6h1+x/pXk+luAkhgfcQfat+JB0S4VAJCsQwaCpAPKmcim/E700T3Z7Ja/GmlJjewxMlDHt70Un4m0p4vp+Y/lXjl6+jPMRvVXHQedQ3TAAJI+lRVlPr7Hd+QzSS6tJ00Sj2e3+INM3/Pt8xlo+09KvbxjTgbjftAd96/1rxMbe/HOf6xWrgUc8cTP+0UPxi8CUel+M/j+zb8thfikcsZVR+Un6Y9aQXPx9qGyGRPQJP6ya5MuhUgg8g/UAx+vatoqHIkR6Ur6peY6aOx03+I19fmW088cg+2Oa1e/xI1BbyW7aiOILfnIrkdi9/wDatALEg0v4lB1I6S/+OdY+dyqOyov5EyaQ+I+IPcO66zue7NMe3QUKbXAPBG7PrxGKg6qDBn2PbrReZWHVXY0Lw43COYn844+tTLdoqm5o7cT9eKpGyQs5jJGOn0HPftUWWMh4KU/ypsJLjv8Aesk9K2mlAwYH/ViT1ipXdC0EwwGPb1zND3iLHhypanF16Mr24nn+8/rUQvoKJtaLygAkcmSR16z1EAVBtKoMfEkxOMjkDnvkUvvY+IFjnV15gzhp5ie1QO6rbengyXJ/l9qG/wAuP4m/8DU95Ep1oyzpWzAIOPNtVT7xMEfSrFuLBh0JHG5ufqJIzVVwWncDzE9SCZ+4xEx96pOm0/lJDr0CCADBjzMFkKZ7xVXPN/IrRbb8RYSqC3PMwWJyOxmM9PSnHgEX0u7mQPbG4ArcDOP4VG+D9qT29Uz+Wwyg7fMqAmMk+U7QvGJY1eo1KsG2gn92WA9h1gHJJ9KlK/iOt/U3GOmEaXkdKXtjSm7dK8lfhiVcEr5T5iRExXJu5uB7gdhM+XymYHUwT689aO8fR7tptoDNI8oYdO0nn86X+EeH3Ldubq/NkLuExA+k8iKOSCjxJMv6X2jBSvLdVzy7J+Gm4Qdu65EkhZwJx/WiLDOPOqcnPQn2LGq9NrgNxtK1t480ZY4kTAP2Pehm8Sd9pLYHzcZ7Ha0QJHODQ0vwMXUddracFTXelZrxxLht3pXAAPTyyFxzxj7npRltHME3cECRJn6TA69+1JNQ5a3c/aQsDJzvwRAAEzR2luB1X4dprjBRljAJgSQAcGYGTVrg9O9GFty3kR0hVfiShYLdefqMenPvRf8A8mSCU8pz5do9iDAieftQ2i8Puu91XcWxuEJAHm2zgDnygGV7UbpLSW03oN28g75PXiQvy/fvSyUb8WSVvkG0d646OwDFmaAO0wWnssQPqaNTQ7BLec8FQY9oEdjU/wDJX0tPqABtLSCLgyMKCFOSOs9Rml13W7tzBnwJIgGcY9THf3qNNukGcJRrUqCtVq2WI3bTI2zH2/SBS+7q2A6g7MT6Qes5rLmqkEZ9NyrPHT09/SoeGK1yBtBXqCvt2oxgoq2SMNTC/ALbXYdwSM7cTJ9fQU11t4zBmB/fHSibVjYMMEWMRAjrzEd6Ca6xc2wXdiJjkQTkiJgTNUXrnYrV8Ci4Dlgflhfoc/aa3qNQfhXIgSjCJGRBnHOf51O00fFUqfm2xGZ2rAjmZPahdJZK7xd29dwby9J2ndEYjHNaNNl2WO6aGOib44uWy0G0F+G3YMiyvGRILf8Ace9RQXUEgqfZhOJxBz/ZoLTaYfHuhXO0fDIYDldnfgHkHmCD2punhFofKDI7PMTwMkg8jpVeRqMqfl+xSwYeJttIbPcOsgfrJ+tE6W4HnzbMcKGj3IP0oTxzwx0UuBvE7iMn3OM/3NJ715j5VEyRIH6YzHPagoxkriSjpwGzDhyOA3T2Hfmgrl8qxFyyMniCpMDmePrQFrXhZKySSRAM57ATz1+lNbesPysCQeZAInHSOMxOaVpxBXYy7cUmfiY/1QQPZpmf61q08qACO2JXuQBwDx68VVqrdm5EkpGFKqQZPoMc9SOpq1dA8yGQgDpOTxMcA0NSSLumUffR1Pa1ZAaqMPbDFVAUq8nB6hlg4P0oix4sV2gKwDGdpFuOo+bd5TjoRSnxEkDMiCJ6R7mhP8sLqoHbAkx1OSRHp/WjB6luz1HWyw9MtaSfy/wddts3HFveBwC7BgJY4ByZ6fL3oPUWbPxNu5SSIHlbnnOJnNJ/DNKgaVV8HLTCiCOhGaJ/DVn4OqW+t1SQSQV3E9YJBEc4gmnSVtN7HNn7RxuCcI1Lvx8+A5fCQIdXLQwn4YyCcAeYH7x2oldTsDIDJk7hcJMNOdwbG7vAFEXfFLmmS69ohviYYvDABj5iARiTXM/51WXzQw6tkiTgEEZ+1Bwlfl5Feb2jJx+B03zt/EN9T4hcJddxhoKswnZtP7RYEgSvH1oY3FMkXFODmMD6E9/0ockz/wA5ABODK4/M4qq7dNwEgz2LWwCI4ySJ96FW7Odmzyyab5Sq/EMS7KyCh7gY/MA5rW3dnac+p/8ArVGnMrgWpb3xHPygAH69aGGp6BBjnaTzzn1zU02Z6KdJ4RcMQjqATLGA044HSY5NGJo7dr/iK7MQfKJAYLmWMZIHr2qV/wAYc5RR8HILRifQ8/bjFDafxJiu9R5N3nlpiTM5mR7ZgRVnxy5JY2t6uwqhQvl65wAIJhhifbuPWlur1YZHK7kDEdedp6D5px1iqdYoVlvGVQjaWKk87o2gny9Y49KrN4lVdIgnmS7mDjA+SQOpoxxpbkMXXgjcr8GJCQdpGTAyWmATVy+InCgEpxkGVB5OcTP5DPFKtTbIuHbbw/BmCD25jk+3FNfDfARcG93dgeQojrB3GYJ9BmBTS0xVsNFOp1bCPLncAxKgysT5mBgECPeqNRcmMAhhkcHqIB6DH/8AR9Ke3/DbCt8QrcBnaIcmeACYyOMAmjU0FqINrAO6GzB6QSMcflSLKq2REhR4doibbsyKVIwDGRtaYgSPfAxM078ND/5e0EdQSgORMckQP3VHrMDM0t12sll2ZBDCFAEfJMg4LATUvwp4Y1+FG7ZtBu3Z+UCP2aAZzg/nxFGnKNvYux4pT2XI+8F8MNwXbhDwXVlaUlh8MBiAxEKQMcHr1qrVeDOLVtJIVyFaMQNpO3dA5Iies4ih/FtXZS7cRLTbFR9sQpDbUKsZBMCTietHWdZpozYYJgfIpzz87Fm4zgjg0sZJSuTo7v8ATouCeOLl8iB0/wAS2q23D25ECei/KOCYHHfFQtfgy80BUCyYAJbAMyZ2jHoe9E+F39EPiBnKLv8ALFp3IXasw5nb5i3A60D4jdueW4rult52AXWmFMebIkzTSyRgrW4+LoMnUy05FXZXa38EP7n+GqQZu9OqGJ/8hihn/B12wq7Wt3FjJYMuYyCoLdOv6Uo8OvXi6ql26Sx4NxoJ/wBXmiK6TQayzduH4t02lRIKm/ck3DMkeb5QoEd93pQWWE+fqTP7JeFVSfpd+Qj1vh+ow3w7ZJxC3GBg91MA+xqjRvesvKJkrs54zOYyOO1dLcNncQ14XFPFxL9zcvurNB/vNA3ksglTdLDo4Nw/+SMCCPYj3pv9OK7GbF0E1kUoxa86br6CDU6VhcuXGe2txrm4Q0rJRQJMCBII45Vu0nWr8Ou3gQ//AB7aTIOLsYj0bpNH66wyI1xLrXFtgwwWADE7SCsxgY/nTH/494DG/uUgjy7Z4nPl9KaOS622Bm6GnJykrW9bp+Jw1jR7rjqhLIcwQwIUcAtBEe3Jng05sXLQUBCgAAESU29OSsdqCXxG4TdtBjsW63JMMZ5gY9fqaX3EKuW2M2weUkkrnBx7/rxVU0pza8DLm6ZYsMcjVqV73XokdJbLljtHxABIi6CSQZIInk+1B+IaQOSRbNtpMvwJwBvXmD39Oc5TBnBUsitmE2sSOpJYGB9+PtT7Ra4KsP8As+QIJk8Ef7ccelVuOh3+xjvE/FfJnK6pYbYclYmJgAjG1eszzW0vlT5rhG7hGzGP3oMgeldfqNOHI8qFiAQxRZ7ETyTmeR70pt+D3mbadJjqwLKPrvJBH+9WwyqQYYHP8r+jEy6tkhid5bCC2IGdp7YMA/SKb2fF/hpIR2ng8x3EgARgj6VB/BWX/h3FtkfOlxgCZ5j06YGe9GXfw/a8ou6ldoGVt2mIP/dIHfmhJ45Lc1v2X1OqlG/Qhb8cZgD8MDqdxJBHHlHt39avt3UKjbaG04kDbHE8nOSKu0+k0tvIF+4Y6sFH0CgnqaIta63bEW9PbX1dmuE/c8+tUvQuPuaI+xeqa+KkvURajwt3IZCJmQjH1ECJg+hkRWj4XqIjaQeZJBnjAzMHbyZ4ptqPxOyYFy2h6KigdSOQsjPWhLXiTXtxLkgQOWwczls/XFNrko39gr2NqkoRmnJ/L9WB6DV3FLLteRgluSCcHaREdB3mrNE+oMlUcA5UEAbuwA6d5NR1usbdAZsR1gmI4J5yTW21OoLgGR0JESAekDk459qd3V0tzj5IuEnB9nXyC7DFNzPaWI5Uev8AFye/HM1DV2Ld6YZl+kjMjLMPyFDf5o2WBBd1kyCD5RHbuD37VY3iJUlHBEZUNkmR/Z+vpSaZXa/n6FZB9JctjcAXEAApA29pYment61sa9oGAf8AvmMnE7qjd8RiWAORgSVnI2nJjnOOhzQ6+KWjJYISTJzMekx+mKsUZPlWAE1d1LiDZvIEyuQpA6j/AFAnj0PHFVJfQIwlIKgNuJDGYJ7DntR2m8DtLccNeBRBKlWKMCf3QTIjnr1phb01i3AFs3C2UbmZH8R9iMngcYp3kitlbG2OeI42ZJMjzzKicbekcH3ojReGX2lhKq2MsV2xjIBggfpTi5ZsW2+Ggy0yZyJALSxzGBGIqWstWwwPxjgAhHAzgZBwDxP0oPK+yJZO3oQgB+Gjt1dsKDxABkc9hn7Vu/r9+9bZVCkb5ldsfOAYkGev9gS5vYqCHfJgr8swZA5zM5n+VB6t2Du1vYruBvkyRJMmIOzvjsIpFjt/FyAZnxdjA8wjyAmQGP7p3RiYY9jmqNRqiLgQFSAdj/ukMc8R8vB+9AXPERK/FYb7ZK4Qyechp2nnHpNSv+IbrhZhtRx/CGOVjzniDPHPHEVZHHXYlBmk0ha5v+IRYLxuxhoJaJMTjHQTXceCaqxb0tuybm0geb4bBcmck9Sf51xV5ztto23yQqkKBtG04UwCFJzFBjVupKwDB5zMT9vyqp5G38J67o/Z8MeO52264rirOp1tlLl9j8UMksCWKkkG1ZC5xPDD6e9b/wAoIguhHofpwCa5hbrMW2yDOOD+6IHA/s1G9duK7qGBCsVnaOhIpJtvwNvT48cFa1Ld7X4P1HaaEzcmILeXmT5V9I5nmp2vDLzfLb3exn74pA1+6BII+1P/AADxW9Yl7dzTy65FzEbSYHzA7j9oNLGGt06L8uf3EG4t358bu/Mx9FfRhNl46tOB2k/l9aL8PsOu/C+YgkEnG0RPHrVviPj2qvWzaJ0ZVutsEEbXXg7sSY+lc7Z1dzcQwXBjE/1qZYKHCF6XqJdQqbad+Fr7HTJpXOQyR1kxHvMVe1vc5MRHTG045xH2pRY8bNtSQJgTE04ufiz4MhkuTJEpMSJx7mMD0NJCOp0l/PmN1fvMKcnJtLwrv+jJobq2biKLZVgdwLDIiDgniKp8dLBl/wAuUtgjzKWDSQZG0rJ6nkxxTO+PionmI+IATB4nNJvEfw+DcDG407YBIHTpPNbYQyRqonD6jJ0+RvVk38039Ujm/FdM1srcJZTdJZlkeWNoAIHp+YND2LKuZLsi7pn4YJOWzM+vt1646nQfht9qut47g7SdudpiFBJIlSJDR14pB41pL9i98NmBDLuS5BMgY8zE8jGPURRnCauSM8M/SvGoZd1HwXISE02JW+8dNwUdOdok5HWibWtRXLpp7Yf+JiXP0mI9hXNXbtwkFngYyp9JMqc/7wKtv61VXpdO0QMgzkEkHHX8qoeOb7jf1Dosf/zw360jon8bvYAdUkxCKBk9OOfrULvxWnc7mOhYnOOBx1Fch4deZlMsQgcjYBMzlgOgAwZprpvESJI+QMOASQDxj90SQB7mlnia43El7cyrbHCK/TcL1BFvLYEgsTI8vUjoSP4TVOpuuRusmV5JCglQO4/oOlFjxHhLi7u6iGEdx3z+laexaBDf8MlSxYHhhJ2snGQY9jSR25X3Rkn7V6qf9zXpS/YSXdYxWRdLNwAABPefrHaqURk3MoaePMZx1Mzj6DrV3iVuAGH/AAjIUryCM+ZTkE9DPX0pffu2wvcL0IIkkd8TwMxP5VsglWyMk8057yk36tk11z7wtxB2G0cGQMdvanOg8gfp1/Wkh1IBLXCfMBCmPvg8T+lMtNr0IaGWSsQxj8uaTNBtKkdn2N1EcSm5Oq3+gGurdilzaGPJjpBPIj60TqNTeUb8TklcAgtGdv14IxQV3XXA/mwrn5lnInHTPEVJ9aFAS4p+G2QxgsJnqO/0wKtcd+DhSbcg234g20bru5j5TyFXJmG9o6RjirrvirrcNtQqkZj5hgcfWfvQCqfhwjoynIRxtgdCO+QG4pvo7SlVfBMGCMDoODJ9fvwaSait2itkNXfRwDetDaIG9iCdwncB1jHHE0p1tlt7GwECEyAYBE9IPpFM9R4ylttm0P0HBUEHPlExg/pVaay0/m2Eeg/n60kda4QUmGeK3tOgT9mpkkQZU9RIAMhZgx6daGv3Lj2y1mFIUDbuAEbjJSfcnJ9uKTkK11i7bQDmRPrIHam1+7HnsW7m1lhmZBDGMiInGOlPo00QAIe0A5ZWZogqwbZIng9CD7TUjq0KqssSGILAZcfwmYET3xFBeIaR2/abQltmgEggT1C4mMevWp2NO4Egg2+AVAWZWc7oM1bSrcIx8RuG2bUAhOVC84xDL3Hcfliq7z/Df4oQCFB3FgQwPBOZDcCP1pTrS6wruSeokEZI4g/3FGLqLZRA5dDna22RHQfrx360VHYlGkFt087SWaTsCgLgk9D6DpVun0O0PF1QykbTvEOIwOoHX6moLfDlnF0AkiQ3lkHmME9f7iKoOi+HxsuACW2sQVgwQQefaiEeWSdtvdyDB9IDDp7VXcvW9xPm55EQfaa1dIa2hSFkggdBMyMR61Q+8f8ALtx3Aj8prGoRbep0eyj1GaOKGiOpNJ896oP8NuI15VEybixPbyTNC6q4u9mCOCxYy1wgHqcKBjjr1rfgVv8A/IViANrbscCEJ/lVawADwO5zyCOJ4/rTwjHVSMnW9Rl9ypSSTt+Zq7q3GPKvbqDicsxMGhr+tugwGIIElWAGI5VogisukmSMCFndlTji4OQfUT17Ym2kUW94c7DypMjII8qwSJ7/ANi5qC7HFl1ub/k/mBp4nf746eVf1imen1V0TMMccRA/6mwKHXwsEopBthxImcx68jnMjrVnxAFIgbZgCQqjn5j1jGP1pWoS2pBx9fnTvW/mwpr28RvdZgSVUrJ6AwD9YNdM19Fa8X+b4rKrSQF85lj0MDviuS0N/c6GQQWUBogc/Ki4xjn0rqdObb2tQpZQ7XHKqSJPmPAPPaklijqXzOph6/I8E3J23S5fcKTxxBjeMDvOAPStnxtD++PrXG3/AAG4pgA5niOKEHhNz/q7AASfyrZGd8HFlFp7noSeMQMPA9/5CgfH7xv2TtO508y9f+oe0Z/7RXEnwu5OP0rofwp4Sfjq1zcCDIHQnsR/fFFyvYXSznNHpHMndLMCFE5zyW9BGPWKtveGLgOSrRknA5iREzj+VOvE/wAMPZLlVJth5VgRgEyAQTMzC/QUu1Xhi2wLjNcuACAGUiTnByce3b1qhqW7EaKXvDZsWSylR5VnoYXnjn1k+lE2QZAA+GCp3MRywgZHJMx2oS0FtqrbigYzHqY4746elbJEEM0Otzcd0RjhdvrApKvgQJ0hcKtx2UQ0ADmIyA043do6800tvbJZ2tgMpO4EbgOQBE5OD35pAmqBuq+1okb3I/fySeDAz0p1pvFWuB4RTDQHxAMiPUng4ziqcsZckrYM1XwwoQkDdMlBMfMMq3PP94rmPFNELRl8iYVgJ4iMg88HjrXWWNWJBZOP3yoB7GCOkj9Kq1F9GG1iHR1ztBUyCIlsROYqvHklF8eotpHHrYd4uMqATORntmo2dmxmuAZPCwM46RXQ3fCluM5FwIqkeUrJBPaCAYzB5qweBI4e58VjM7QQOw+bgmY/XmtLzwXP3Gs5d9WNoRJKjJDAHnmO3vVLWncA7QBwBMSMdz+frTbVeAtaQuQGx5thnnOJXAihU1SMQxBO3B3Z9pIGTnAq2Mk1cSX4Gre12LBvhlRAEEyAM5PA9s5FSvW9iA21YRgsJ82eWB5+kRI+tN3xO4X8p9yByBzRmp8UKvIErgleccxBzP8AWpTsDTI2vE7koLo/ZnORtBEfpgfamB8bPENjsY9ePr9ooOzceFchXDfLk+QnqVA45z+la1thA0fDNzHzqcH70jSb3RNrKvEAhhkUgCdxUSIkR+vOOtZb8WYIihiYO7Pm7R07CCDWeH+Jrb6sIiJ4nrK9R0NCa3aWL2zAaSR0HOBGe9WV2aCl2YTd1Ft1TcHYhjMLJjsSTJ9BwIqi7rLom2T5ZnaYPtI47Y4qvSl1UlTM/MAJA9z3oldEzuDcIjp0nEj1+9Gkg7Ii/iLnaLhMDgbePboJ/pU7HioVgQCELTtPA4kr2Me9U3NCzrKz5eRukADBg/aq7VkgQIniPfrNSokpMM1Vn4nmUeViWBYHv1IyaG8plbiwwwO+Bx+mDVl2xdVFDOQJOJbrzI7GOar/AMy0SQd5yDuHTr3JqIiG9jaLQ2ElVcR3+YSPfJqGocbj83TG01HS3t1u420L5pgf9p/lU72pXdjY2OZ9+xrI09T2s9Zhn/oQ1SrZbell/gxi5cbI22nOfVGX+dA/E491yefmPTtn7zTHwp9xu45tqMH+K4qmPoT9qJ0emtAgFQwVpMxJ5McSTMY96inobbRg9pZY+6jFO92/qzn7dsQksIbJAnhYBJ/IU2Nu+VDW5JY4wBE5BJ9Aqj6ntT+7dS1bDBFljJiBg4APXgjt0qOm12WDKwUAEA+X5oCkDEyREmqpdQ5bqJwGxQ2iuFSWgtkqDBK+UK5GesA4/SlOtTbcJuBXnzRML9Yx19eRNPb7I9sbydwYhXyGXvgHzYxnpQnjGoW0APnkwd0HEBlE8xHfOKtxzd1QYtCzwi5N60TJLXEG5uT5hAVRwv6xXa/4c+J27eqa7ctC4CGAyJUlydwBweYriPBiH1FkqNpW4u48zDY5wBED6Uw/D1wgBp6n9a06dUjbHJpwv1+x2/8AiWlzWtv02jbaBsLjbLHerAgTjCxPrXmw0d5BD6e/ImSNw/QRivVPCdayoh/iJ64iQJFOWA5nmro4klsY5dQ73PEfg3pG21fB5/ebB+Xp+dexf4f6rSi041dllu/60YgqFUHaf4i24/Wl3jam0qPb8ong4GZJHopOfQ54JpfqNduCBZG5oIjiFYkH1xx6Uk8aZZDO627inxLxS0i64WUZTddVtMYlED7mB7kjGZrldF4/qUcBbrCYBgLxPt70Jr9S291JODj2z+WaH0vzrPfNLCOlD5J6nYyv34hVYFU6HBiQQBzHXNV6pPiNuB2g9Jke0HPNSs203MyqoAXEz39fQHNM9Bp/KGO3cOhWDOeMT/6pJSUTO3QR4TZuWlVXSYG7y55zmJPHPHEZprZ1I+GLi2WYDdLRwMQRnj7xSW3euftC4uSBA/dCkiPvH/rtXptfetrtBZtwIVj68KY+pzWeUNTvuBsb27qPcIBZxtgFAeGyVO6ZzH3qWo0UFfiRu39DA4gGOM4HE4HM0Ndv3UJK2zJWd4kgRyQOCMkyKV6jxFiY3eYY3T16kdziooNv4eAUPbuotNdIKBPKAzLxxBMekn3xVotWxsQCC0BcbXnBBIICgQswcQa5vQC7eZRMKrqdx7iPpx0Heuv12pEFlL58iuApwR5uT3n320mSOlpJkaI6uzI2r5w4BEN5pBHykYYAnjtik+p8MUKu1USAxuLEb9ozhpHsf0imAiUJZlhgwAXgmd0ckSCDHSBWPdIRXCOSpZSDjDciDkjPbuDSxk1VARy1vVWwJUyBAUNPTIjMfSKoF7O5lXepyJ8sRjjEyaMveDDcGRVZOMBvKTxPcYPH2pXdWCVYBSvY9Z5YE9ulblpd0NsFLfa5cGBkyeYEkRO3vgVbrbVx2koW6AqcQCY6VFbTWlK7oDCW25k9MGPrVVrSXHG4OoHQMSDHsBFSrBsS0l63b2m4geJ3bT2BjB+lVf50NhFVD1AwDEwQO8fzqlEkzukdAs5juP61brVJChV4/hUSeplhnHr/ACp6Vlhdpbl1nIQgE5Inp0zHNR1endmE3ACOekHAJx7j71XpnZHiGRjkyCP7GaItXFUlW2ZxJEsOfXHofag9nsBsr0720Ox7krHmA4OenYxWtVZKkPbOwRx156cniO1BFoLIApz1Anrwah5QBLEkdvXkRRrclBGmv3JA+Js6dscn9fzqKadgYzBzJHNatXTAEAdiRz7etONHa3ASACB0EChJ0XYoOTN2be223sf0repRdwLEDGPLM/Wir6QpHv8ApQFrSO21ouFDE7dxA461l2cm2z0WPI4YI0k/V1w/+xz4QigMV6gAkYACkn3k/wBKlo9AHXfB27WAnykZktuwMwvp962NPg2UJSM7nkhucFumYM+kRV+mDkRccIiAKPOCXjqCMbf54jFJK0rTPPdXneXI2/8AwlY0rLbmWZjLLj5RgQVBkkMfy9Kp1Xh96+gcXAPL+0DNDfMCNuO688eanDoRLMmAuP4oMQB1k9M/Sg7FgEXPM6R3JYEEHj09SegqqMuZGXuJNTpCh/aNtBB8pyTmZjhWkDjpUb2ltugtEEESVMiWniCeSe/0o258YOqkJfgHzCP+05ODB6xgUg8V1Nw3GV0KsIgnoTwO201qh8TQVvwa8A3rfReF38nHEmB60x/C5HHWAfoeP50FY1LG6hJwFbd7qtyJ6SJj7Uqs6tlZWB+ncA8flWmN3Zp/2l6s9R8KueYKeF3Y7boNdKdXuQAASMdM4/KuH8A//ItTcCjdukdwDAplp9NYQ7VUCCMSc/NPXvFa1HZHMlK5sZ+O30az8MzO6M5kQQSDPHTNcrqLL27luGDBmIAEgz8N4J6YEifaeJrpNb4XvtypIK5icR1FJfFEVfgsejkyTH/Kuc+lVZE1yaMLT4OJ8X8PhyRImfrHX0/3oWxYAIbIUcnAx6U98QXcRBjyk9+opDrBtwGkkdo+mc4rOpN7GrJGnsFadDcViirzMtAiOpzNNNRZKMrKXLEgiT5VzgsOnf0mubXTNwOomPQ804talbboGyOgORmBJ9P6ClnHfYplXYao1yZuMrgOdwDfun5iZGeI7/aibaWmLqwIhTDKdu2D6GdoxHsYzXP3F+KWa0wECSuRz+6D3gRnpOaJ0dy2kI4VPKCzEmWk5KnAnHXtVbx/MWi+0xUNvuEGTKqd3QAQ3ESZ45B71X/lVts10P8ALlUYAnoJDcTgxMHmhb9pZX4bAbgZUkGMwTH0mhLlq6T8MAsxJO0Dgnk+mOvFMo33rxJyONH4itx0DHAM4x6Y++Kvsu5QpsYhYNstEyNxgxwQvTtM0s1OotPsQrs2qVBXkNjnvkxTDUae4EtohQZ5GIcgEE9ehzSSSS8BWhj4Of2QV3GAT5YIljIxiWIMk+lX+H2rgKl7hK42yWkzwAxz98+uKG0unVbYAu5ZibjGMwFmIEkdAP8AVRdnxBdjbFZvhzII8uMDgyADJ9dprM3Jt6e5AuzqQSQWAYcL1WTgcZmMe9A67S277gC6fUQBgkc4+aJ+tVXNSl0QAPikeXyxBIkExmAQBJ4571Dw5ArMl1iLgBfacDcFAaYnueDxTRi42+K4CA+I/h/DFLxQL0uAiOkbxg47D/ZHrPAr9ttuwviZQMRn1jmu4u6m64ChVXfEGIB5IMHrGOMgUr1OgvbjBWO+4mfX5Ksx5p96CpHMC2SZVdiiYgz+nNT0vxAwGwwcZMTOBBraWTOCQwkqNwIE8x1ist6htoWVBHUD369O/wBq1jtmavSLaOXMxPEiZIjGQcVQLVrDM0gjgcg+lR1hZ+rkDMt3/lWGzjJEjr0z3mivNkKdS69Fgd85q1NkZQgk857dOgyPzqy/bdhG0EfxDp3nofeidBomxMkdqjkkh4QcivR6JsEz9aeWU2CrLSAe9RCbiZwKzylZvx46IXASJNAWnYKqgsQ2No7xiI7GnNjT7yEGAeSZMDvipabTf5dXllYkwrDoOZg89Diq78C/LnxxxaJK3vX0GEqgT4rSYgruM59T0nH86E1122twEIotpuMQCGicAHpPtzSe/wCIEkhv3RgYn/TIGB3+/ehfD7XxHKhwFwSWzBYhcyeSSMUY4e8mcN7uxx4/r5O3y4GM8AiQInjaVozwzxIFdlkEgJtYjL8Q1xZwIYzHoKAu+C2LZl3d1Bh9xiB1I284gDoDzV1vxyyqNA2FyUwIhDkSO4gZ9aVxTilBWL6F2p1qG2WI2XAQD6N3I4YH7g0r16LcT9oSHAhX/iAgw3ST9844qrWO2oPxVtyAFDkEc5kkdJiiX1dh1CttU8cQPTJ+XiOY44qyC0peP7BQr0GkVQWdl4IQzgllIyYngz9KUX8EDsAPt/vTHXa1kU2wCmTiI8uYg9emaVM+45OT1NaYXyy1XQ/8M196xalFUr8zFoP0GZ/91C7+JLzHG1fZc/nRGitq2na3uPcsoPeeo4xQtnTo1sWpUw87gG3R1Hy+tXONVRVGTd32f0Oo8D8dvBVe43Qk9Mew9K5vxnxpr6sD8syoxgZjPMxj70R4s0W/hqwUHksdsgdM1zt+2VjiOhBBB+op8rTaXgV9NjauT7vg6RzIAOf2Y/WkGoTGOBj69qeWcscTCIPzal+r0pDjA2k5np6k9hWKDpnUywbjaArZMiD1xx6TIoxtPbAEszHcenlgf39Kj8ZUlVPrMcx2n0/Shr17Mjj0/OnpsyNMN1d62hLWjtJPAyBB7Hpgfep3fEkuIEdAAD5YXJkZJPqZP1qqzcFlgwyYy0e/Hoc0LqnBYQDmDP8AKokmIOtNrLVtUARTAkEgEzI+b6kgdoFQva3coKuJAaQMSJAMntmlVzQkOEJM9gPSYEx0610Gl0ltQqlBtEGXUHcczI6+nSq5aY7vexXS3APBdGLge48eTiep+Y46zPXHtUr99kzOWJ3QZ9DMcH19BRHwAtuEuR0CxjuSc4PBoUad2t7jyrcLiRzhevByftUTTbbCty+7rdqmR8sAMOcmfqJHFUaDxVpI/jEd442n9fvQWptOQIBIImAZ7QT2Oad+DKlkEMqOS0POfQBfbJkdqElGMeLA6oM0OrDMVtDzkhN0kHIMz02/Sjdddfb+0K5wciTwCVPrzikYtiyQquxLtKqfKF4G7vPrjE0dfcKqlm/ZpAntA4AnseoMyRWfJD4thXzsMvEX3W0dRcUW8gEZjuY7CD9fSlviqxchjtaBuG7gx6GKIveIQW2hhgFJOQxIEHO0YnER9qJSxdIB3WuOpBP3iljaW5LRyNvxa6262VVg+CIHPcdjVK2UALAtjlWIx2gj+lRW/EjbJJwR0I4OOfr6Vd8dCdzwYGZWMnvit7VcFy8kA3LzP+7xnAn/ANiirfwwjEE7uQveDkcR9KofUjcDbHuP6HkVZa07uQSc8TzPvNF8DKDfBfYRmdd0yMjMf3/vXQW9PtzigdBodvqf7/KmDn61nnKzbix0iu6Z6VtSB3z/AHxWItFW7GAzGF5JkTjsKrlJJbmhuMVbKrPVQ0FuROfT8+nWr28LTyj4hBOTuIiOJ6EHPY8GtOF3CFYEQR37rM44qi5Buo1wErJmeCRJgf6R6+tVt3unRys+RSlZfrPDUYnzRBAWBJHThYDDr6Vd4bpbenWFTdcbNwwG2jhRDZ7nAHPWo31/aLccFWZlZFnLmSRuImEECZ7H2ojQLbYXhdctvlueoJD57zEdKEm9G7tFVl66W3etk30XcqlrYMeYgZWQZnjBHEetcbqPDFdWZNythghOIAggk+aY4/P0c2tcd4cDy4wDglR5uOQQOaaazTI4a8hKbQRtWCGyxUsp6keXHBjnNPFvE9+/yD6HEeFG4A20kBoEcA5wGimmqJZwWKt/qnKxELERjv8AzptftjUKNwS3eRYELIIE5gd/rgnmuateF3SfI45wxJAaf4TznA4q9STtvZkST3YZqNIl2NxVMjoWY/8ASxPB7R9653xHThHIB3A5BHH0yaMRrp3DzdiIBHOevaqNJ4e5bCgxnPb7iath8PLGqjen8QuKhXeQCenp/Y+1XWr7oFu5EloaOTA6feh/ip1A+zf/AGqa3bRxtH3I96uJXkXahy4kmevalT802RJHlQx6Mf8A61TotJvdjkBIMHP049KVutx4xb2H1pIjM4571rUpuH061lsz/f5Ve1usb5s6iS00cxcLTszA65nnFb1V0cAcY9fWetH65Qh3ck8frSn4bEgzBJ+399q0x33OZkVSou0wTLN0I8pmOgz/AH0NWXlLOfhiIMiP3eoj1/PFQtagtKGPMccATwCfYTHrRtlfhpAYlZloHJ4AU/n/AGaj2KWE6MMrl7m0s0BeGMAiSvT0n1ohrDBnZ38iqHbPyzhQJzyw47ih7q2xbUodrtmD1AjbJ571U+lZIu3HJzJWJGOJPEz0qnncUGay+2JnceP3owMH2HHpRNl2BVWQpugLyNsEZB6zJ+9E6fV/DFy41sk/xEcYnb6TjNXaHxbz/FcyEM5ySSJ8gJ7T6Ci3LwJuD39YFX5dpOZPJAB4NA6Z710BLa7i0GPUEzn1p5fum4ArxsKztByOZDdjiiTp0S0VVW38gLgyeJjJxk0kcmlcbgToC0XirB1S6sZ867R52IIWf9I6R0E1bqrjIAvxFuLGFgmZyuQMDH9ZpUPD7l64WSFIHmlgI7gepg495ijyEYkMsLbWYYyWyIjODJHT60JUnfzJ5ktTqz8G2pU72Eq3BII83PC/1+tH2PGLKKFFoPA+bJz6HtS3WXSyuVXczmAGMwTHPrGe1VPoWEBjBAiFKxj+dTRFrfb9SRQj0et+GPlB7f0P99KsIZxwgH09PtWVlamXLkv02kA/2zTixp4Hf+/SsrKpmb4RQWOKrisrKqLok0TEySPtWl1BDiQCoiOpx0+prKyppTe5T1f5C674ifiMFuQzgyOowZlhwZHE9+Kv121NMjMS1y6m4uG5UiPKOBwB3xW6yknFKq/nJy33Fd3V7rShCGe3sUkws7YKx12gg/ejLNhXBY3VBI+STmABMzEmIz/OsrKeapAkAWrSrYe7BZBhQG2naSc5+gjHWqLviDqNgMoCDAwGEnJxOYAisrKsj8Ut/H/AUX+CJtZXuO2/lUyARtkgmZ4n7Vf4poUIV7CuLR+dZwhiVYHkCcdgR9BuspJN6g9xff8Ah/DW0kqMMCBJmAeevXNDtqLlsi4p37QQzQQIIjp8pz+lZWVYgsS27P1E8jpRtjSd8gdjz2xWVlXl64GWjWFI6zkdscVHTgK9zdguAVnqVkEe8GsrKq/uZevyoYW1MR/frFT2YrKyqGa4i3xdBANIrxI8wkVlZWjFwYOo/OUKhifWKcXrtx7fmVj2G3AxyI7n9Kyspsj3RnkU20K2wTO4mAp/l1B/rTHRPctg7+PU4zBED0Iz71qsqrJ4Fcgh9f8AtALjAsW6nGTAEdsTS/S2L1zebaTtEEiOJk5PHcVlZTNaY2vIK4QfpnHwypB3KPN/EhjEHnOM+tA6HxlrTbct5pBmI8oAx6HNZWVFBO7IkXPqdrG3v2lvmxyTz7f70ZftqbYuoQScbGxvGRM8xjrWVlJkWnjxA9gCz4iVB3DbJ3AwYECIB6mjX09gwbt6HIBPkU8ic+vT6VqsppRuiM//2Q==;" vertex="1" parent="1">
          <mxGeometry x="410" y="100" width="392.86" height="220" as="geometry" />
        </mxCell>
      </root>
    </mxGraphModel>
  </diagram>
</mxfile>
